<svg width="1000" height="1000" viewBox="0 0 1000 1000" fill="none" xmlns="http://www.w3.org/2000/svg">
<path d="M470.691 0C490.873 0 511.054 0 531.236 0C533.736 0.546861 536.21 1.40618 538.762 1.58846C613.864 7.23936 684.461 28.2284 749.173 66.717C882.138 145.803 963.673 261.478 992.318 413.817C995.729 431.968 997.474 450.405 1000 468.738C1000 488.92 1000 509.101 1000 529.283C999.427 532.408 998.776 535.533 998.333 538.684C995.625 558.319 993.906 578.136 990.13 597.562C951.251 798.833 788.313 957.918 586.078 992.318C567.902 995.417 549.543 997.448 531.262 1000C510.429 1000 489.597 1000 468.764 1000C466.628 999.453 464.493 998.542 462.306 998.385C419.937 995.365 378.428 987.578 338.611 972.813C157.001 905.549 46.8216 776.698 7.9164 587.042C4.14046 568.683 2.57806 549.855 0 531.236C0 510.403 0 489.571 0 468.738C2.52598 450.431 4.53114 432.046 7.65606 413.869C42.2906 211.453 201.141 48.7227 402.307 9.86956C424.885 5.49467 447.879 3.22908 470.691 0ZM456.707 425.119C419.624 426.864 384.495 433.452 352.908 452.853C285.644 494.154 259.16 569.308 283.56 648.368C314.341 748.053 421.031 792.74 510.195 742.22C571.469 707.508 600.974 652.483 603.187 583.162C604.88 529.517 604.047 475.795 604.307 422.098C604.333 418.348 604.307 414.599 604.307 409.13C642.639 430.978 680.139 449.051 725.268 444.181C725.268 419.026 724.981 394.677 725.424 370.355C725.58 362.543 723.263 360.095 715.294 359.053C665.165 352.543 629.645 326.814 612.953 278.066C608.448 264.941 605.661 251.217 601.911 237.129C574.386 237.129 546.262 237.129 517.304 237.129C517.122 241.14 516.783 244.629 516.81 248.119C517.018 354.861 517.643 461.576 517.122 568.318C517.044 586.261 513.945 604.724 508.867 621.937C501.523 646.806 485.847 665.504 459.077 672.092C420.301 681.597 381.318 662.274 365.016 625.531C346.918 584.75 367.412 541.496 412.958 525.507C427.255 520.481 442.072 516.966 456.707 512.747C456.707 483.581 456.707 454.78 456.707 425.119Z" fill="black"/>
</svg>
