<svg width="1000" height="1000" viewBox="0 0 1000 1000" fill="none" xmlns="http://www.w3.org/2000/svg">
<path d="M530.332 999.96C509.531 999.96 488.73 999.96 467.93 999.96C455.742 998.456 443.535 997.147 431.387 995.429C339.316 982.343 256.582 947.245 184.707 888.143C89.2969 809.706 29.8633 709.608 7.75391 587.85C4.39453 569.393 2.53906 550.683 0 532.069C0 511.268 0 490.487 0 469.686C3.16406 447.89 5.46875 425.936 9.58984 404.335C50.5664 190.019 233.086 24.1013 450.078 4.12082C556.66 -5.68386 658.008 13.3982 749.316 69.6677C927.988 179.804 1010.8 341.483 995.352 550.819C988.047 649.843 949.57 738.261 886.563 815.097C808.203 910.663 707.91 969.999 586.094 992.167C567.637 995.585 548.926 997.421 530.332 999.96ZM210.996 501.151C212.793 548.573 212.871 596.405 216.816 643.925C222.871 716.542 273.555 770.995 345.41 781.229C381.563 786.366 418.555 787.03 455.176 787.03C517.188 787.03 579.375 787.304 641.172 782.948C698.496 778.905 742.09 749.53 767.305 696.366C778.32 673.163 783.242 648.202 783.613 622.714C784.629 555.487 785.215 488.241 785.254 420.995C785.273 399.921 783.789 378.768 781.66 357.792C774.219 284.999 724.941 231.034 652.773 220.565C616.973 215.37 580.273 214.784 543.984 214.784C481.641 214.804 419.141 214.491 357.012 218.749C279.512 224.081 223.164 281.268 216.719 358.69C212.793 405.878 212.773 453.397 210.996 501.151Z" fill="black"/>
<path d="M263.242 500.022C264.492 456.858 264.648 413.635 267.246 370.55C270.859 310.628 308.828 270.979 368.73 269.397C455.352 267.112 542.109 267.053 628.73 269.358C689.922 270.999 729.043 310.237 730.703 371.721C733.027 458.323 732.91 545.081 730.605 631.702C729.043 690.901 689.141 729.339 629.941 732.717C542.656 737.717 455.254 737.737 367.988 732.698C308.848 729.28 271.602 690.842 266.992 631.507C266.465 624.71 265.508 617.913 265.488 611.116C265.332 574.085 265.41 537.073 265.41 500.042C264.707 500.042 263.984 500.022 263.242 500.022ZM499.238 647.952C580.449 647.854 645.898 582.522 646.191 501.253C646.484 419.788 580.527 353.733 498.984 353.85C417.734 353.948 352.305 419.26 352.012 500.53C351.738 581.936 417.734 648.05 499.238 647.952ZM651.699 382.132C671.035 382.288 686.426 367.092 686.406 347.854C686.387 329.026 671.348 313.85 652.539 313.675C633.203 313.499 617.871 328.675 617.891 347.991C617.93 366.897 632.852 381.975 651.699 382.132Z" fill="black"/>
<path d="M594.627 501.122C594.529 553.622 551.677 596.376 499.138 596.395C446.248 596.415 403.299 553.153 403.611 500.184C403.904 447.782 447.029 405.184 499.588 405.399C552.107 405.614 594.724 448.563 594.627 501.122Z" fill="black"/>
</svg>
