<svg width="1000" height="1000" viewBox="0 0 1000 1000" fill="none" xmlns="http://www.w3.org/2000/svg">
<path d="M468.776 0C489.609 0 510.443 0 531.276 0C533.776 0.546875 536.276 1.19793 538.776 1.64064C569.792 6.97918 601.38 10.026 631.719 17.9687C816.719 66.4583 961.51 225.964 992.396 413.828C995.391 432.057 997.5 450.443 1000 468.75C1000 489.583 1000 510.417 1000 531.25C999.453 533.75 998.568 536.25 998.385 538.802C991.745 624.87 965.156 704.297 916.823 775.755C837.136 893.568 727.161 966.12 587.083 992.24C568.646 995.677 549.87 997.448 531.25 1000C510.417 1000 489.583 1000 468.75 1000C466.589 999.479 464.427 998.62 462.24 998.464C375.495 991.875 295.469 965.13 223.516 916.302C106.146 836.615 33.8021 726.875 7.78643 587.161C4.34893 568.698 2.55208 549.922 0 531.276C0 510.443 0 489.609 0 468.776C2.23958 451.745 3.95832 434.609 6.8229 417.708C24.3489 314.323 69.7135 224.818 143.177 150.104C218.099 73.9063 308.385 26.0937 413.88 7.70831C432.083 4.50519 450.469 2.52604 468.776 0ZM493.229 658.49C496.172 660.547 498.88 662.37 501.458 664.271C538.385 691.458 575.261 718.698 612.214 745.885C638.88 765.495 657.266 758.542 664.115 726.38C689.375 607.526 714.766 488.698 739.766 369.766C743.021 354.297 745.964 338.385 745.912 322.708C745.86 306.719 732.031 298.177 716.38 301.849C712.292 302.813 708.307 304.323 704.375 305.833C589.219 350.234 474.089 394.661 358.958 439.115C313.516 456.667 268.021 474.089 222.734 492.031C213.724 495.599 203.333 500.651 203.932 512.031C204.531 523.672 215.755 526.406 225.052 529.349C262.187 541.12 299.479 552.474 336.562 564.453C343.776 566.771 349.193 565.99 355.547 561.979C445.391 505.156 535.365 448.542 625.365 391.927C630.026 388.984 634.714 385.677 639.87 384.089C643.281 383.021 647.552 384.714 651.458 385.156C649.792 388.047 648.568 391.354 646.38 393.776C642.917 397.63 638.802 400.911 634.948 404.401C564.688 467.865 494.479 531.38 424.063 594.661C418.542 599.635 416.042 604.74 415.859 612.188C415.469 626.484 413.958 640.729 412.969 655.026C411.302 679.297 409.687 703.568 408.021 728.099C418.281 729.011 425 724.245 431.198 718.281C451.771 698.411 472.396 678.568 493.229 658.49Z" fill="black"/>
</svg>
